# This file uses centimeters as units for non-parametric coordinates.

g default
v -0.892339 -0.078876 12.204011
v 0.892339 -0.078876 12.204011
v -0.892339 1.730542 12.204011
v 0.892339 1.730542 12.204011
v -0.892339 3.539959 12.044224
v 0.892339 3.539959 12.044224
v -0.892339 5.349376 12.110810
v 0.892339 5.349376 12.110810
v -0.892339 7.158794 12.204011
v 0.892339 7.158794 12.204011
v -0.680815 8.496982 11.795363
v 0.825616 8.636860 11.699302
v -0.892339 8.968211 9.763208
v 0.892339 8.968211 9.763208
v -0.892339 8.608665 7.322407
v 0.892339 8.608665 7.322407
v -0.892339 8.968211 4.881605
v 0.892339 8.968211 4.881605
v -0.892339 8.968211 2.440803
v 0.892339 8.968211 2.440803
v -0.892339 9.191498 0.000000
v 0.892339 9.191498 0.000000
v -0.892339 8.968211 -2.440802
v 0.892339 8.968211 -2.440802
v -0.892339 9.203828 -4.881604
v 0.892339 9.203828 -4.881604
v -0.892339 8.968211 -7.322407
v 0.892339 8.968211 -7.322407
v -0.892339 8.732097 -9.763208
v 0.892339 8.732097 -9.763208
v -0.892339 8.184603 -11.793293
v 0.892339 8.184603 -11.959340
v -0.892339 7.158794 -12.204011
v 0.892339 7.158794 -12.204011
v -0.892339 5.349377 -11.752701
v 0.892339 5.349377 -11.752701
v -0.892339 3.539959 -12.204011
v 0.892339 3.539959 -12.204011
v -0.892339 1.730542 -12.371767
v 0.892339 1.730542 -12.371767
v -0.892339 -0.078876 -12.490051
v 0.892339 -0.078876 -12.156763
v -0.892339 -0.078876 -9.763208
v 0.892339 -0.078876 -9.763208
v -0.892339 -0.078876 -7.322407
v 0.892339 -0.078876 -7.322407
v -0.892339 -0.078876 -4.881605
v 0.892339 -0.078876 -4.881605
v -0.892339 -0.078876 -2.440803
v 0.892339 -0.078876 -2.440803
v -0.892339 -0.078876 -0.000000
v 0.892339 -0.078876 -0.000000
v -0.892339 -0.078876 2.440802
v 0.892339 -0.078876 2.440802
v -0.892339 -0.078876 4.881604
v 0.892339 -0.078876 4.881604
v -0.892339 -0.078876 7.322407
v 0.892339 -0.078876 7.322407
v -0.892339 -0.078876 9.763208
v 0.892339 -0.078876 9.763208
v 0.892339 1.730542 -9.763208
v 0.892339 1.730542 -7.322407
v 0.892339 1.730542 -4.881605
v 0.892339 1.730542 -2.440803
v 0.892339 1.730542 -0.000000
v 0.892339 1.730542 2.440802
v 0.892339 1.730542 4.881604
v 0.892339 1.730542 7.322407
v 0.892339 1.730542 9.763208
v 0.892339 3.539959 -9.763208
v 0.892339 3.539959 -7.322407
v 0.892339 3.539959 -4.881605
v 0.892339 3.539959 -2.440803
v 0.892339 3.539959 -0.000000
v 0.892339 3.539959 2.440802
v 0.892339 3.539959 4.881604
v 0.892339 3.539959 7.322407
v 0.892339 3.539959 9.763208
v 0.892339 5.349376 -9.763208
v 0.892339 5.349376 -7.322407
v 0.892339 5.349376 -4.881605
v 0.892339 5.349376 -2.440803
v 0.892339 5.349376 -0.000000
v 0.892339 5.349376 2.440802
v 0.892339 5.349376 4.881604
v 0.892339 5.349376 7.322407
v 0.892339 5.349376 9.763208
v 0.892339 7.158794 -9.763208
v 0.892339 7.158794 -7.322407
v 0.892339 7.158794 -4.881605
v 0.892339 7.158794 -2.440803
v 0.892339 7.158794 -0.000000
v 0.892339 7.158794 2.440802
v 0.892339 7.158794 4.881604
v 0.892339 7.158794 7.322407
v 0.892339 7.158794 9.763208
v -0.892339 1.730542 -9.763208
v -0.892339 1.730542 -7.322407
v -0.892339 1.730542 -4.881605
v -0.892339 1.730542 -2.440803
v -0.892339 1.730542 -0.000000
v -0.892339 1.730542 2.440802
v -0.892339 1.730542 4.881604
v -0.892339 1.730542 7.322407
v -0.892339 1.730542 9.763208
v -0.892339 3.539959 -9.763208
v -0.892339 3.539959 -7.322407
v -0.892339 3.539959 -4.881605
v -0.892339 3.539959 -2.440803
v -0.892339 3.539959 -0.000000
v -0.892339 3.539959 2.440802
v -0.892339 3.539959 4.881604
v -0.892339 3.539959 7.322407
v -0.892339 3.539959 9.763208
v -0.892339 5.349376 -9.763208
v -0.892339 5.349376 -7.322407
v -0.892339 5.349376 -4.881605
v -0.892339 5.349376 -2.440803
v -0.892339 5.349376 -0.000000
v -0.892339 5.349376 2.440802
v -0.892339 5.349376 4.881604
v -0.892339 5.349376 7.322407
v -0.892339 5.349376 9.763208
v -0.892339 7.158794 -9.763208
v -0.892339 7.158794 -7.322407
v -0.892339 7.158794 -4.881605
v -0.892339 7.158794 -2.440803
v -0.892339 7.158794 -0.000000
v -0.892339 7.158794 2.440802
v -0.892339 7.158794 4.881604
v -0.892339 7.158794 7.322407
v -0.892339 7.158794 9.763208
v -0.034957 9.495943 -4.881604
v -0.034957 9.260327 -7.322407
v -0.034957 9.024212 -9.763208
v -0.034957 8.184603 -12.204011
v -0.034957 7.158794 -12.204011
v -0.034957 5.349377 -12.068711
v -0.034957 3.539959 -12.520021
v -0.034957 1.730542 -12.687777
v -0.034957 -0.078876 -12.490051
v -0.034957 -0.078876 -9.763208
v -0.034957 -0.078876 -7.322407
v -0.034957 -0.078876 -4.881605
v -0.034957 -0.078876 -2.440803
v -0.034957 -0.078876 -0.000000
v -0.034957 -0.078876 2.440802
v -0.034957 -0.078876 4.881604
v -0.034957 -0.078876 7.322407
v -0.034957 -0.078876 9.763208
v -0.034957 -0.078876 12.204011
v -0.034957 1.730542 12.477498
v -0.034957 3.539959 12.317711
v -0.034957 5.349376 12.384296
v -0.034957 7.158794 12.204011
v -0.034957 8.490926 12.049571
v -0.034957 9.260327 9.763208
v -0.034957 8.900782 7.322407
v -0.034957 9.260327 4.881605
v -0.034957 9.260327 2.440803
v -0.034957 9.483613 0.000000
v -0.034957 9.260327 -2.440802
vt 0.375000 0.000000
vt 0.625000 0.000000
vt 0.375000 0.050000
vt 0.625000 0.050000
vt 0.375000 0.100000
vt 0.625000 0.100000
vt 0.375000 0.150000
vt 0.625000 0.150000
vt 0.375000 0.200000
vt 0.625000 0.200000
vt 0.375000 0.250000
vt 0.625000 0.250000
vt 0.375000 0.275000
vt 0.625000 0.275000
vt 0.375000 0.300000
vt 0.625000 0.300000
vt 0.375000 0.325000
vt 0.625000 0.325000
vt 0.375000 0.350000
vt 0.625000 0.350000
vt 0.375000 0.375000
vt 0.625000 0.375000
vt 0.375000 0.400000
vt 0.625000 0.400000
vt 0.375000 0.425000
vt 0.625000 0.425000
vt 0.375000 0.450000
vt 0.625000 0.450000
vt 0.375000 0.475000
vt 0.625000 0.475000
vt 0.375000 0.500000
vt 0.625000 0.500000
vt 0.375000 0.550000
vt 0.625000 0.550000
vt 0.375000 0.600000
vt 0.625000 0.600000
vt 0.375000 0.650000
vt 0.625000 0.650000
vt 0.375000 0.700000
vt 0.625000 0.700000
vt 0.375000 0.750000
vt 0.625000 0.750000
vt 0.375000 0.775000
vt 0.625000 0.775000
vt 0.375000 0.800000
vt 0.625000 0.800000
vt 0.375000 0.825000
vt 0.625000 0.825000
vt 0.375000 0.850000
vt 0.625000 0.850000
vt 0.375000 0.875000
vt 0.625000 0.875000
vt 0.375000 0.900000
vt 0.625000 0.900000
vt 0.375000 0.925000
vt 0.625000 0.925000
vt 0.375000 0.950000
vt 0.625000 0.950000
vt 0.375000 0.975000
vt 0.625000 0.975000
vt 0.375000 1.000000
vt 0.625000 1.000000
vt 0.875000 0.000000
vt 0.850000 0.000000
vt 0.825000 0.000000
vt 0.800000 0.000000
vt 0.775000 0.000000
vt 0.750000 0.000000
vt 0.725000 0.000000
vt 0.700000 0.000000
vt 0.675000 0.000000
vt 0.650000 0.000000
vt 0.875000 0.050000
vt 0.850000 0.050000
vt 0.825000 0.050000
vt 0.800000 0.050000
vt 0.775000 0.050000
vt 0.750000 0.050000
vt 0.725000 0.050000
vt 0.700000 0.050000
vt 0.675000 0.050000
vt 0.650000 0.050000
vt 0.875000 0.100000
vt 0.850000 0.100000
vt 0.825000 0.100000
vt 0.800000 0.100000
vt 0.775000 0.100000
vt 0.750000 0.100000
vt 0.725000 0.100000
vt 0.700000 0.100000
vt 0.675000 0.100000
vt 0.650000 0.100000
vt 0.875000 0.150000
vt 0.850000 0.150000
vt 0.825000 0.150000
vt 0.800000 0.150000
vt 0.775000 0.150000
vt 0.750000 0.150000
vt 0.725000 0.150000
vt 0.700000 0.150000
vt 0.675000 0.150000
vt 0.650000 0.150000
vt 0.875000 0.200000
vt 0.850000 0.200000
vt 0.825000 0.200000
vt 0.800000 0.200000
vt 0.775000 0.200000
vt 0.750000 0.200000
vt 0.725000 0.200000
vt 0.700000 0.200000
vt 0.675000 0.200000
vt 0.650000 0.200000
vt 0.875000 0.250000
vt 0.850000 0.250000
vt 0.825000 0.250000
vt 0.800000 0.250000
vt 0.775000 0.250000
vt 0.750000 0.250000
vt 0.725000 0.250000
vt 0.700000 0.250000
vt 0.675000 0.250000
vt 0.650000 0.250000
vt 0.125000 0.000000
vt 0.150000 0.000000
vt 0.175000 0.000000
vt 0.200000 0.000000
vt 0.225000 0.000000
vt 0.250000 0.000000
vt 0.275000 0.000000
vt 0.300000 0.000000
vt 0.325000 0.000000
vt 0.350000 0.000000
vt 0.125000 0.050000
vt 0.150000 0.050000
vt 0.175000 0.050000
vt 0.200000 0.050000
vt 0.225000 0.050000
vt 0.250000 0.050000
vt 0.275000 0.050000
vt 0.300000 0.050000
vt 0.325000 0.050000
vt 0.350000 0.050000
vt 0.125000 0.100000
vt 0.150000 0.100000
vt 0.175000 0.100000
vt 0.200000 0.100000
vt 0.225000 0.100000
vt 0.250000 0.100000
vt 0.275000 0.100000
vt 0.300000 0.100000
vt 0.325000 0.100000
vt 0.350000 0.100000
vt 0.125000 0.150000
vt 0.150000 0.150000
vt 0.175000 0.150000
vt 0.200000 0.150000
vt 0.225000 0.150000
vt 0.250000 0.150000
vt 0.275000 0.150000
vt 0.300000 0.150000
vt 0.325000 0.150000
vt 0.350000 0.150000
vt 0.125000 0.200000
vt 0.150000 0.200000
vt 0.175000 0.200000
vt 0.200000 0.200000
vt 0.225000 0.200000
vt 0.250000 0.200000
vt 0.275000 0.200000
vt 0.300000 0.200000
vt 0.325000 0.200000
vt 0.350000 0.200000
vt 0.125000 0.250000
vt 0.150000 0.250000
vt 0.175000 0.250000
vt 0.200000 0.250000
vt 0.225000 0.250000
vt 0.250000 0.250000
vt 0.275000 0.250000
vt 0.300000 0.250000
vt 0.325000 0.250000
vt 0.350000 0.250000
vt 0.495103 0.425000
vt 0.495103 0.450000
vt 0.495103 0.475000
vt 0.495103 0.500000
vt 0.495103 0.550000
vt 0.495103 0.600000
vt 0.495103 0.650000
vt 0.495103 0.700000
vt 0.495103 0.750000
vt 0.495103 0.775000
vt 0.495103 0.800000
vt 0.495103 0.825000
vt 0.495103 0.850000
vt 0.495103 0.875000
vt 0.495103 0.900000
vt 0.495103 0.925000
vt 0.495103 0.950000
vt 0.495103 0.975000
vt 0.495103 0.000000
vt 0.495103 1.000000
vt 0.495103 0.050000
vt 0.495103 0.100000
vt 0.495103 0.150000
vt 0.495103 0.200000
vt 0.495103 0.250000
vt 0.495103 0.275000
vt 0.495103 0.300000
vt 0.495103 0.325000
vt 0.495103 0.350000
vt 0.495103 0.375000
vt 0.495103 0.400000
vn -0.157063 -0.074423 0.984780
vn 0.000000 -0.075358 0.997157
vn 0.000171 0.006848 0.999977
vn -0.233282 0.006864 0.972385
vn -0.000126 0.026041 0.999661
vn -0.303804 0.024231 0.952426
vn 0.000090 -0.006547 0.999979
vn -0.233290 -0.006445 0.972386
vn 0.009626 0.109184 0.993975
vn -0.159848 0.096230 0.982440
vn 0.030054 0.226449 0.973559
vn -0.161961 0.215874 0.962895
vn -0.224862 0.933533 0.279201
vn -0.042044 0.962123 0.269353
vn -0.016705 0.999110 0.038745
vn -0.285699 0.957479 0.040134
vn -0.000326 1.000000 -0.000000
vn -0.322503 0.946569 -0.000000
vn 0.000170 0.997377 0.072384
vn -0.321699 0.944209 0.070569
vn -0.000104 0.998937 0.046100
vn -0.322206 0.945699 0.042848
vn 0.000213 1.000000 0.000000
vn -0.322502 0.946569 0.000000
vn -0.000211 0.999997 0.002572
vn -0.322501 0.946566 0.002345
vn 0.000225 1.000000 0.000000
vn -0.322502 0.946569 0.000000
vn 0.000000 0.995364 -0.096184
vn -0.321161 0.942633 -0.091093
vn -0.004936 0.981949 -0.189081
vn -0.276064 0.941991 -0.190897
vn 0.004307 0.956762 -0.290841
vn -0.227546 0.930035 -0.288545
vn -0.228638 0.191098 -0.954571
vn -0.045901 0.156034 -0.986685
vn -0.016811 -0.046178 -0.998792
vn -0.200046 -0.030377 -0.979316
vn -0.000355 0.047156 -0.998887
vn -0.266205 0.042046 -0.962999
vn 0.000198 0.165906 -0.986142
vn -0.341319 0.161046 -0.926048
vn 0.046783 0.011565 -0.998838
vn -0.267701 0.035021 -0.962865
vn 0.095778 -0.069841 -0.992950
vn -0.181194 -0.021584 -0.983211
vn 0.000000 -1.000000 0.000000
vn 0.000000 -1.000000 0.000000
vn 0.000000 -1.000000 0.000000
vn 0.000000 -1.000000 0.000000
vn 0.000000 -1.000000 0.000000
vn 0.000000 -1.000000 0.000000
vn 0.000000 -1.000000 0.000000
vn 0.000000 -1.000000 0.000000
vn 0.000000 -1.000000 0.000000
vn 0.000000 -1.000000 0.000000
vn 0.000000 -1.000000 0.000000
vn 0.000000 -1.000000 0.000000
vn 0.000000 -1.000000 0.000000
vn 0.000000 -1.000000 0.000000
vn 0.000000 -1.000000 0.000000
vn 0.000000 -1.000000 0.000000
vn 0.000000 -1.000000 0.000000
vn 0.000000 -1.000000 0.000000
vn 0.000000 -1.000000 0.000000
vn 0.000000 -1.000000 0.000000
vn 0.000000 -1.000000 0.000000
vn 0.000000 -1.000000 0.000000
vn 1.000000 0.000000 0.000000
vn 1.000000 0.000000 0.000000
vn 1.000000 0.000000 0.000000
vn 1.000000 0.000000 0.000000
vn 1.000000 0.000000 0.000000
vn 1.000000 0.000000 0.000000
vn 1.000000 0.000000 0.000000
vn 1.000000 0.000000 0.000000
vn 1.000000 0.000000 0.000000
vn 1.000000 0.000000 0.000000
vn 1.000000 0.000000 0.000000
vn 1.000000 0.000000 0.000000
vn 1.000000 0.000000 0.000000
vn 1.000000 0.000000 0.000000
vn 1.000000 0.000000 0.000000
vn 1.000000 0.000000 0.000000
vn 1.000000 0.000000 0.000000
vn 1.000000 0.000000 0.000000
vn 1.000000 0.000000 0.000000
vn 1.000000 0.000000 0.000000
vn 1.000000 0.000000 0.000000
vn 1.000000 0.000000 0.000000
vn 1.000000 0.000000 0.000000
vn 1.000000 0.000000 0.000000
vn 1.000000 0.000000 0.000000
vn 1.000000 0.000000 0.000000
vn 1.000000 0.000000 0.000000
vn 1.000000 0.000000 0.000000
vn 1.000000 0.000000 0.000000
vn 1.000000 0.000000 0.000000
vn 1.000000 0.000000 0.000000
vn 1.000000 0.000000 0.000000
vn 1.000000 0.000000 0.000000
vn 1.000000 -0.000000 0.000000
vn 1.000000 -0.000000 0.000000
vn 1.000000 0.000000 0.000000
vn 1.000000 0.000000 0.000000
vn 1.000000 0.000000 0.000000
vn 1.000000 0.000000 0.000000
vn 1.000000 0.000000 0.000000
vn 1.000000 0.000000 0.000000
vn 1.000000 0.000000 0.000000
vn 1.000000 -0.000000 0.000000
vn 1.000000 -0.000000 0.000000
vn 1.000000 -0.000000 0.000000
vn 1.000000 -0.000000 0.000000
vn 1.000000 -0.000000 0.000000
vn 1.000000 -0.000000 0.000000
vn 1.000000 -0.000000 0.000000
vn 1.000000 -0.000000 0.000000
vn 1.000000 0.000000 0.000000
vn 1.000000 -0.000000 0.000000
vn 1.000000 -0.000000 0.000000
vn 0.999981 0.005001 0.003707
vn 0.999935 0.009196 0.006817
vn 1.000000 -0.000000 0.000000
vn 1.000000 -0.000000 0.000000
vn 1.000000 -0.000000 0.000000
vn 1.000000 -0.000000 0.000000
vn 1.000000 -0.000000 0.000000
vn 1.000000 -0.000000 0.000000
vn 1.000000 0.000000 0.000000
vn 1.000000 -0.000000 0.000000
vn 1.000000 -0.000000 0.000000
vn 0.999911 0.010715 0.007943
vn 0.999594 0.022893 0.016971
vn -1.000000 -0.000000 0.000000
vn -1.000000 -0.000000 0.000000
vn -1.000000 0.000000 0.000000
vn -1.000000 0.000000 0.000000
vn -1.000000 0.000000 0.000000
vn -1.000000 0.000000 0.000000
vn -1.000000 0.000000 0.000000
vn -1.000000 0.000000 0.000000
vn -1.000000 0.000000 0.000000
vn -1.000000 0.000000 0.000000
vn -1.000000 0.000000 0.000000
vn -1.000000 0.000000 0.000000
vn -1.000000 0.000000 0.000000
vn -1.000000 0.000000 0.000000
vn -1.000000 0.000000 0.000000
vn -1.000000 0.000000 0.000000
vn -1.000000 0.000000 0.000000
vn -1.000000 0.000000 0.000000
vn -1.000000 0.000000 0.000000
vn -1.000000 0.000000 0.000000
vn -1.000000 0.000000 0.000000
vn -1.000000 0.000000 0.000000
vn -1.000000 0.000000 0.000000
vn -1.000000 0.000000 0.000000
vn -1.000000 0.000000 0.000000
vn -1.000000 0.000000 0.000000
vn -1.000000 0.000000 0.000000
vn -1.000000 0.000000 0.000000
vn -1.000000 0.000000 0.000000
vn -1.000000 0.000000 0.000000
vn -1.000000 0.000000 0.000000
vn -1.000000 0.000000 0.000000
vn -1.000000 0.000000 0.000000
vn -1.000000 -0.000000 0.000000
vn -1.000000 0.000000 0.000000
vn -1.000000 0.000000 0.000000
vn -1.000000 0.000000 0.000000
vn -1.000000 0.000000 0.000000
vn -1.000000 0.000000 0.000000
vn -1.000000 0.000000 0.000000
vn -1.000000 0.000000 0.000000
vn -1.000000 0.000000 0.000000
vn -1.000000 0.000000 0.000000
vn -1.000000 0.000000 0.000000
vn -1.000000 0.000000 0.000000
vn -1.000000 0.000000 0.000000
vn -1.000000 0.000000 0.000000
vn -1.000000 0.000000 0.000000
vn -1.000000 -0.000000 0.000000
vn -1.000000 0.000000 0.000000
vn -1.000000 0.000000 0.000000
vn -1.000000 0.000000 0.000000
vn -1.000000 0.000000 0.000000
vn -0.999803 0.015934 0.011812
vn -0.999306 0.029918 0.022179
vn -1.000000 -0.000000 0.000000
vn -1.000000 -0.000000 0.000000
vn -1.000000 0.000000 0.000000
vn -1.000000 0.000000 0.000000
vn -1.000000 -0.000000 0.000000
vn -1.000000 0.000000 0.000000
vn -1.000000 0.000000 0.000000
vn -1.000000 0.000000 0.000000
vn -1.000000 0.000000 0.000000
vn -0.999127 0.033551 0.024872
vn -0.995744 0.074042 0.054889
vn 0.300463 0.953793 0.000000
vn 0.299195 0.949768 -0.091782
vn 0.243206 0.951400 -0.188919
vn 0.185438 0.941436 -0.281624
vn 0.129889 0.117415 -0.984552
vn 0.154322 -0.059471 -0.986229
vn 0.247409 0.042264 -0.967989
vn 0.318296 0.162254 -0.934003
vn 0.326504 -0.010336 -0.945139
vn 0.328539 -0.107026 -0.938407
vn 0.000000 -1.000000 0.000000
vn 0.000000 -1.000000 0.000000
vn 0.000000 -1.000000 0.000000
vn 0.000000 -1.000000 0.000000
vn 0.000000 -1.000000 0.000000
vn 0.000000 -1.000000 0.000000
vn 0.000000 -1.000000 0.000000
vn 0.000000 -1.000000 0.000000
vn 0.000000 -1.000000 0.000000
vn 0.000000 -1.000000 0.000000
vn 0.000000 -1.000000 0.000000
vn 0.145482 -0.074557 0.986548
vn 0.216511 0.006845 0.976256
vn 0.282799 0.024415 0.958868
vn 0.216517 -0.006453 0.976258
vn 0.156683 0.112476 0.981223
vn 0.169131 0.228873 0.958651
vn 0.127816 0.959228 0.252081
vn 0.226981 0.973225 0.036237
vn 0.300464 0.953793 0.000000
vn 0.299705 0.951384 0.071036
vn 0.300183 0.952903 0.043203
vn 0.300463 0.953794 0.000000
vn 0.300462 0.953791 0.002366
s 1
g pCube1
f 1/1/1 151/201/2 152/203/3 3/3/4
f 3/3/4 152/203/3 153/204/5 5/5/6
f 5/5/6 153/204/5 154/205/7 7/7/8
f 7/7/8 154/205/7 155/206/9 9/9/10
f 9/9/10 155/206/9 156/207/11 11/11/12
s 2
f 11/11/13 156/207/14 157/208/15 13/13/16
f 13/13/16 157/208/15 158/209/17 15/15/18
f 15/15/18 158/209/17 159/210/19 17/17/20
f 17/17/20 159/210/19 160/211/21 19/19/22
f 19/19/22 160/211/21 161/212/23 21/21/24
f 21/21/24 161/212/23 162/213/25 23/23/26
f 23/23/26 162/213/25 133/183/27 25/25/28
f 25/25/28 133/183/27 134/184/29 27/27/30
f 27/27/30 134/184/29 135/185/31 29/29/32
f 29/29/32 135/185/31 136/186/33 31/31/34
s 3
f 31/31/35 136/186/36 137/187/37 33/33/38
f 33/33/38 137/187/37 138/188/39 35/35/40
f 35/35/40 138/188/39 139/189/41 37/37/42
f 37/37/42 139/189/41 140/190/43 39/39/44
f 39/39/44 140/190/43 141/191/45 41/41/46
s 4
f 41/41/47 141/191/48 142/192/49 43/43/50
f 43/43/50 142/192/49 143/193/51 45/45/52
f 45/45/52 143/193/51 144/194/53 47/47/54
f 47/47/54 144/194/53 145/195/55 49/49/56
f 49/49/56 145/195/55 146/196/57 51/51/58
f 51/51/58 146/196/57 147/197/59 53/53/60
f 53/53/60 147/197/59 148/198/61 55/55/62
f 55/55/62 148/198/61 149/199/63 57/57/64
f 57/57/64 149/199/63 150/200/65 59/59/66
f 59/59/66 150/200/65 151/202/67 1/61/68
s 5
f 44/64/69 42/63/70 40/73/71 61/74/72
f 46/65/73 44/64/69 61/74/72 62/75/74
f 48/66/75 46/65/73 62/75/74 63/76/76
f 50/67/77 48/66/75 63/76/76 64/77/78
f 52/68/79 50/67/77 64/77/78 65/78/80
f 54/69/81 52/68/79 65/78/80 66/79/82
f 56/70/83 54/69/81 66/79/82 67/80/84
f 58/71/85 56/70/83 67/80/84 68/81/86
f 60/72/87 58/71/85 68/81/86 69/82/88
f 2/2/89 60/72/87 69/82/88 4/4/90
f 61/74/72 40/73/71 38/83/91 70/84/92
f 62/75/74 61/74/72 70/84/92 71/85/93
f 63/76/76 62/75/74 71/85/93 72/86/94
f 64/77/78 63/76/76 72/86/94 73/87/95
f 65/78/80 64/77/78 73/87/95 74/88/96
f 66/79/82 65/78/80 74/88/96 75/89/97
f 67/80/84 66/79/82 75/89/97 76/90/98
f 68/81/86 67/80/84 76/90/98 77/91/99
f 69/82/88 68/81/86 77/91/99 78/92/100
f 4/4/90 69/82/88 78/92/100 6/6/101
f 70/84/92 38/83/91 36/93/102 79/94/103
f 71/85/93 70/84/92 79/94/103 80/95/104
f 72/86/94 71/85/93 80/95/104 81/96/105
f 73/87/95 72/86/94 81/96/105 82/97/106
f 74/88/96 73/87/95 82/97/106 83/98/107
f 75/89/97 74/88/96 83/98/107 84/99/108
f 76/90/98 75/89/97 84/99/108 85/100/109
f 77/91/99 76/90/98 85/100/109 86/101/110
f 78/92/100 77/91/99 86/101/110 87/102/111
f 6/6/101 78/92/100 87/102/111 8/8/112
f 79/94/103 36/93/102 34/103/113 88/104/114
f 80/95/104 79/94/103 88/104/114 89/105/115
f 81/96/105 80/95/104 89/105/115 90/106/116
f 82/97/106 81/96/105 90/106/116 91/107/117
f 83/98/107 82/97/106 91/107/117 92/108/118
f 84/99/108 83/98/107 92/108/118 93/109/119
f 85/100/109 84/99/108 93/109/119 94/110/120
f 86/101/110 85/100/109 94/110/120 95/111/121
f 87/102/111 86/101/110 95/111/121 96/112/122
f 8/8/112 87/102/111 96/112/122 10/10/123
f 88/104/114 34/103/113 32/113/124 30/114/125
f 89/105/115 88/104/114 30/114/125 28/115/126
f 90/106/116 89/105/115 28/115/126 26/116/127
f 91/107/117 90/106/116 26/116/127 24/117/128
f 92/108/118 91/107/117 24/117/128 22/118/129
f 93/109/119 92/108/118 22/118/129 20/119/130
f 94/110/120 93/109/119 20/119/130 18/120/131
f 95/111/121 94/110/120 18/120/131 16/121/132
f 96/112/122 95/111/121 16/121/132 14/122/133
f 10/10/123 96/112/122 14/122/133 12/12/134
s 6
f 41/123/135 43/124/136 97/134/137 39/133/138
f 43/124/136 45/125/139 98/135/140 97/134/137
f 45/125/139 47/126/141 99/136/142 98/135/140
f 47/126/141 49/127/143 100/137/144 99/136/142
f 49/127/143 51/128/145 101/138/146 100/137/144
f 51/128/145 53/129/147 102/139/148 101/138/146
f 53/129/147 55/130/149 103/140/150 102/139/148
f 55/130/149 57/131/151 104/141/152 103/140/150
f 57/131/151 59/132/153 105/142/154 104/141/152
f 59/132/153 1/1/155 3/3/156 105/142/154
f 39/133/138 97/134/137 106/144/157 37/143/158
f 97/134/137 98/135/140 107/145/159 106/144/157
f 98/135/140 99/136/142 108/146/160 107/145/159
f 99/136/142 100/137/144 109/147/161 108/146/160
f 100/137/144 101/138/146 110/148/162 109/147/161
f 101/138/146 102/139/148 111/149/163 110/148/162
f 102/139/148 103/140/150 112/150/164 111/149/163
f 103/140/150 104/141/152 113/151/165 112/150/164
f 104/141/152 105/142/154 114/152/166 113/151/165
f 105/142/154 3/3/156 5/5/167 114/152/166
f 37/143/158 106/144/157 115/154/168 35/153/169
f 106/144/157 107/145/159 116/155/170 115/154/168
f 107/145/159 108/146/160 117/156/171 116/155/170
f 108/146/160 109/147/161 118/157/172 117/156/171
f 109/147/161 110/148/162 119/158/173 118/157/172
f 110/148/162 111/149/163 120/159/174 119/158/173
f 111/149/163 112/150/164 121/160/175 120/159/174
f 112/150/164 113/151/165 122/161/176 121/160/175
f 113/151/165 114/152/166 123/162/177 122/161/176
f 114/152/166 5/5/167 7/7/178 123/162/177
f 35/153/169 115/154/168 124/164/179 33/163/180
f 115/154/168 116/155/170 125/165/181 124/164/179
f 116/155/170 117/156/171 126/166/182 125/165/181
f 117/156/171 118/157/172 127/167/183 126/166/182
f 118/157/172 119/158/173 128/168/184 127/167/183
f 119/158/173 120/159/174 129/169/185 128/168/184
f 120/159/174 121/160/175 130/170/186 129/169/185
f 121/160/175 122/161/176 131/171/187 130/170/186
f 122/161/176 123/162/177 132/172/188 131/171/187
f 123/162/177 7/7/178 9/9/189 132/172/188
f 33/163/180 124/164/179 29/174/190 31/173/191
f 124/164/179 125/165/181 27/175/192 29/174/190
f 125/165/181 126/166/182 25/176/193 27/175/192
f 126/166/182 127/167/183 23/177/194 25/176/193
f 127/167/183 128/168/184 21/178/195 23/177/194
f 128/168/184 129/169/185 19/179/196 21/178/195
f 129/169/185 130/170/186 17/180/197 19/179/196
f 130/170/186 131/171/187 15/181/198 17/180/197
f 131/171/187 132/172/188 13/182/199 15/181/198
f 132/172/188 9/9/189 11/11/200 13/182/199
s 2
f 133/183/27 26/26/201 28/28/202 134/184/29
f 135/185/31 134/184/29 28/28/202 30/30/203
f 136/186/33 135/185/31 30/30/203 32/32/204
s 3
f 137/187/37 136/186/36 32/32/205 34/34/206
f 138/188/39 137/187/37 34/34/206 36/36/207
f 139/189/41 138/188/39 36/36/207 38/38/208
f 140/190/43 139/189/41 38/38/208 40/40/209
f 141/191/45 140/190/43 40/40/209 42/42/210
s 4
f 142/192/49 141/191/48 42/42/211 44/44/212
f 143/193/51 142/192/49 44/44/212 46/46/213
f 144/194/53 143/193/51 46/46/213 48/48/214
f 145/195/55 144/194/53 48/48/214 50/50/215
f 146/196/57 145/195/55 50/50/215 52/52/216
f 147/197/59 146/196/57 52/52/216 54/54/217
f 148/198/61 147/197/59 54/54/217 56/56/218
f 149/199/63 148/198/61 56/56/218 58/58/219
f 150/200/65 149/199/63 58/58/219 60/60/220
f 151/202/67 150/200/65 60/60/220 2/62/221
s 1
f 152/203/3 151/201/2 2/2/222 4/4/223
f 153/204/5 152/203/3 4/4/223 6/6/224
f 154/205/7 153/204/5 6/6/224 8/8/225
f 155/206/9 154/205/7 8/8/225 10/10/226
f 156/207/11 155/206/9 10/10/226 12/12/227
s 2
f 157/208/15 156/207/14 12/12/228 14/14/229
f 158/209/17 157/208/15 14/14/229 16/16/230
f 159/210/19 158/209/17 16/16/230 18/18/231
f 160/211/21 159/210/19 18/18/231 20/20/232
f 161/212/23 160/211/21 20/20/232 22/22/233
f 162/213/25 161/212/23 22/22/233 24/24/234
f 133/183/27 162/213/25 24/24/234 26/26/201
